{
    "asset" : {
        "generator" : "Khronos glTF Blender I/O v0.9.36",
        "version" : "2.0"
    },
    "scene" : 0,
    "scenes" : [
        {
            "name" : "Scene",
            "nodes" : [
                0
            ]
        }
    ],
    "nodes" : [
        {
            "mesh" : 0,
            "name" : "eros_LP"
        }
    ],
    "materials" : [
        {
            "name" : "eros",
            "normalTexture" : {
                "index" : 0,
                "texCoord" : 0
            },
            "pbrMetallicRoughness" : {
                "baseColorTexture" : {
                    "index" : 1,
                    "texCoord" : 0
                },
                "metallicFactor" : 0,
                "roughnessFactor" : 0.800000011920929
            }
        }
    ],
    "meshes" : [
        {
            "name" : "eros_clean",
            "primitives" : [
                {
                    "attributes" : {
                        "POSITION" : 0,
                        "NORMAL" : 1,
                        "TEXCOORD_0" : 2
                    },
                    "indices" : 3,
                    "material" : 0
                }
            ]
        }
    ],
    "textures" : [
        {
            "source" : 0
        },
        {
            "source" : 1
        }
    ],
    "images" : [
        {
            "mimeType" : "image/png",
            "name" : "eros_norm",
            "uri" : "eros_norm.png"
        },
        {
            "mimeType" : "image/jpeg",
            "name" : "eros_diff",
            "uri" : "eros_diff.jpg"
        }
    ],
    "accessors" : [
        {
            "bufferView" : 0,
            "componentType" : 5126,
            "count" : 839,
            "max" : [
                15036.673828125,
                8543.29296875,
                5805.7138671875
            ],
            "min" : [
                -17564.544921875,
                -8264.8427734375,
                -6042.2119140625
            ],
            "type" : "VEC3"
        },
        {
            "bufferView" : 1,
            "componentType" : 5126,
            "count" : 839,
            "type" : "VEC3"
        },
        {
            "bufferView" : 2,
            "componentType" : 5126,
            "count" : 839,
            "type" : "VEC2"
        },
        {
            "bufferView" : 3,
            "componentType" : 5123,
            "count" : 4608,
            "type" : "SCALAR"
        }
    ],
    "bufferViews" : [
        {
            "buffer" : 0,
            "byteLength" : 10068,
            "byteOffset" : 0
        },
        {
            "buffer" : 0,
            "byteLength" : 10068,
            "byteOffset" : 10068
        },
        {
            "buffer" : 0,
            "byteLength" : 6712,
            "byteOffset" : 20136
        },
        {
            "buffer" : 0,
            "byteLength" : 9216,
            "byteOffset" : 26848
        }
    ],
    "buffers" : [
        {
            "byteLength" : 36064,
            "uri" : "433_eros.bin"
        }
    ]
}
